<svg xmlns="http://www.w3.org/2000/svg" width="98" height="98" viewBox="0 0 98 98" fill="none">
    <g clip-path="url(#clip0_155_8723)">
        <rect width="98" height="98" rx="30" fill="black"/>
        <path d="M72.5149 77.7354C73.0279 75.9892 73.7797 74.6293 74.7702 73.6557C75.7657 72.6655 76.9647 71.997 78.3673 71.6502C79.7865 71.3084 81.4049 71.2418 83.2224 71.4506C85.0399 71.6593 87.0297 72.0812 89.1917 72.7163C91.2372 73.3172 93.0574 73.9783 94.652 74.6997C96.2682 75.4093 97.6027 76.2169 98.6555 77.1223C99.725 78.0326 100.475 79.0477 100.904 80.1676C101.334 81.2875 101.396 82.5522 101.091 83.9619L93.6067 81.7635C93.5742 81.0132 93.0326 80.3663 91.9818 79.8228C90.9526 79.2675 89.49 78.7114 87.5942 78.1545C86.6961 77.8907 85.8382 77.6748 85.0204 77.5068C84.2025 77.3388 83.4684 77.2858 82.8179 77.3476C82.1675 77.4095 81.6041 77.6053 81.1278 77.9351C80.6682 78.2698 80.3334 78.7947 80.1233 79.5098L79.8741 80.358C79.6689 81.0564 79.6716 81.6624 79.8821 82.1759C80.0974 82.6727 80.4668 83.1064 80.9903 83.477C81.5137 83.8475 82.1589 84.1726 82.9259 84.4521C83.7095 84.7365 84.567 85.0155 85.4983 85.289C87.2612 85.8069 88.7432 86.1429 89.9445 86.2971C91.1672 86.4395 92.0055 86.2612 92.4592 85.7621L99.943 87.9606C99.467 89.2118 98.742 90.1731 97.768 90.8445C96.8154 91.5041 95.6432 91.9275 94.2513 92.1148C92.881 92.2903 91.3217 92.2478 89.5737 91.9872C87.8207 91.7433 85.9297 91.3233 83.9008 90.7273C81.7388 90.0922 79.8346 89.3792 78.188 88.5884C76.5415 87.7976 75.2114 86.883 74.1976 85.8445C73.2005 84.8109 72.5438 83.6334 72.2274 82.3119C71.9159 80.9739 72.0117 79.4484 72.5149 77.7354Z" fill="white"/>
        <path d="M38.6501 37.8941C38.3149 35.1313 38.5486 32.7668 39.3513 30.8005C40.1508 28.8078 41.4308 27.144 43.1911 25.8091C44.9778 24.4709 47.2106 23.399 49.8896 22.5934C52.5685 21.7878 55.6183 21.1774 59.0388 20.7624C62.2752 20.3697 65.2313 20.198 67.9072 20.2471C70.6062 20.2667 72.9687 20.5941 74.9948 21.2294C77.0472 21.8614 78.7138 22.834 79.9945 24.147C81.2752 25.4601 82.1269 27.199 82.5498 29.3637L70.7095 30.8003C70.2102 29.7662 69.0584 29.1851 67.254 29.057C65.4727 28.8993 63.0823 29.0024 60.0828 29.3664C58.6619 29.5388 57.3264 29.7542 56.0762 30.0127C54.826 30.2712 53.7628 30.6405 52.8866 31.1206C52.0104 31.6007 51.3375 32.2163 50.8679 32.9675C50.4247 33.7154 50.2717 34.6551 50.409 35.7865L50.5718 37.1284C50.7059 38.2335 51.076 39.083 51.682 39.677C52.2849 40.2446 53.0659 40.6304 54.0251 40.8344C54.9844 41.0384 56.0871 41.1049 57.3333 41.0338C58.6059 40.9595 59.9789 40.8329 61.4523 40.6541C64.2414 40.3157 66.5261 39.8917 68.3065 39.382C70.11 38.8428 71.1796 38.0856 71.5151 37.1104L83.3554 35.6738C83.4434 37.7189 83.0063 39.5074 82.0441 41.0392C81.105 42.5415 79.7146 43.8449 77.8728 44.9494C76.0542 46.0245 73.8385 46.9074 71.2257 47.5982C68.6161 48.3153 65.7063 48.8686 62.4963 49.2581C59.0757 49.6731 55.9701 49.823 53.1794 49.7077C50.3887 49.5924 47.9676 49.1119 45.9159 48.2662C43.8906 47.4173 42.2563 46.1605 41.013 44.4958C39.7666 42.8047 38.9789 40.6042 38.6501 37.8941Z" fill="white"/>
        <path d="M7.67239 10.6435C6.95236 8.97203 6.66276 7.44538 6.80358 6.0636C6.93755 4.6659 7.43362 3.38588 8.29178 2.22354C9.16587 1.05434 10.369 -0.0301205 11.9012 -1.02984C13.4333 -2.02956 15.2341 -2.97516 17.3036 -3.86662C19.2617 -4.71009 21.0847 -5.36326 22.7726 -5.82614C24.4696 -6.31179 26.0123 -6.54225 27.4007 -6.51751C28.805 -6.49963 30.03 -6.19692 31.0758 -5.60938C32.1215 -5.02184 32.9768 -4.08799 33.6415 -2.80785L26.4778 0.278005C25.9738 -0.278676 25.1439 -0.430767 23.9882 -0.178267C22.8415 0.0514565 21.3608 0.557193 19.546 1.33894C18.6864 1.70924 17.8882 2.09081 17.1515 2.48365C16.4148 2.87648 15.8159 3.30434 15.3547 3.76722C14.8936 4.2301 14.585 4.74049 14.429 5.29839C14.2889 5.84944 14.3663 6.46723 14.6612 7.15175L15.0109 7.96363C15.2989 8.63223 15.6878 9.09695 16.1776 9.35778C16.6606 9.60269 17.2218 9.70066 17.8613 9.65168C18.5007 9.6027 19.2048 9.44093 19.9736 9.16639C20.7583 8.88499 21.5964 8.55228 22.4879 8.16826C24.1753 7.44137 25.5305 6.75379 26.5535 6.10552C27.5855 5.43447 28.1169 4.76207 28.1475 4.08832L35.3111 1.00246C35.7436 2.26939 35.7993 3.47214 35.4783 4.61072C35.1662 5.72653 34.5344 6.80083 33.5827 7.83362C32.64 8.84362 31.4127 9.80636 29.9009 10.7218C28.3959 11.6532 26.6724 12.5372 24.7302 13.3738C22.6608 14.2653 20.7399 14.9323 18.9678 15.3749C17.1956 15.8174 15.5879 15.9626 14.1446 15.8105C12.7173 15.6516 11.46 15.1646 10.3729 14.3495C9.27887 13.5185 8.37871 12.2832 7.67239 10.6435Z" fill="white"/>
        <path d="M-7.69938 20.6743L-13.4366 31.1684L-7.50513 34.4112L-1.76793 23.9171L5.07605 27.6588L-0.661153 38.1529L5.27029 41.3956L11.0075 30.9015L17.8515 34.6432L9.24567 50.3843L-23.1492 32.6738L-14.5434 16.9327L-7.69938 20.6743Z" fill="#8A66FF"/>
        <path d="M18.528 80.0075L26.0448 89.3102L31.3028 85.0616L23.786 75.7589L29.853 70.8567L37.3698 80.1593L42.6278 75.9107L35.1111 66.6081L41.178 61.7058L52.4532 75.6598L23.7362 98.8638L12.461 84.9097L18.528 80.0075Z" fill="#8A66FF"/>
    </g>
    <defs>
        <clipPath id="clip0_155_8723">
            <rect width="98" height="98" rx="30" fill="white"/>
        </clipPath>
    </defs>
</svg>